<?xml version="1.0" encoding="UTF-8"?>
<svg width="24px" height="16px" viewBox="0 0 24 16" version="1.1" xmlns="http://www.w3.org/2000/svg" xmlns:xlink="http://www.w3.org/1999/xlink">
    <!-- Generator: Sketch 45.1 (43504) - http://www.bohemiancoding.com/sketch -->
    <title>HOT</title>
    <desc>Created with Sketch.</desc>
    <defs></defs>
    <g id="常规发布任务" stroke="none" stroke-width="1" fill="none" fill-rule="evenodd">
        <g id="发布任务选择任务类型" transform="translate(-355.000000, -233.000000)" fill="#FF5000">
            <g id="Group-7">
                <g id="Group-2" transform="translate(173.000000, 210.000000)">
                    <path d="M202.043633,28.1804739 L200.537697,28.1804739 L200.537697,32.4119386 L199.250131,32.4119386 L199.250131,28.1804739 L197.744194,28.1804739 L197.744194,27.081068 L202.043633,27.081068 L202.043633,28.1804739 Z M197.405474,30.879732 C197.259838,31.2287966 197.057723,31.5272912 196.799454,31.7755441 C196.540693,32.0242896 196.233168,32.2162259 195.876879,32.3516814 C195.52059,32.4871369 195.133926,32.5551109 194.71738,32.5551109 C194.300834,32.5551109 193.915484,32.4871369 193.561658,32.3516814 C193.207832,32.2162259 192.90162,32.0242896 192.643188,31.7755441 C192.384427,31.5274554 192.182475,31.2286324 192.037004,30.879732 C191.891205,30.5308315 191.818798,30.1456454 191.818798,29.7240095 C191.818798,29.2974479 191.891205,28.9122618 192.037004,28.5681228 C192.182475,28.2244764 192.384427,27.9320568 192.643188,27.6910281 C192.90162,27.4501637 193.207832,27.2644665 193.561658,27.1337725 C193.915484,27.0034069 194.300834,26.9380599 194.71738,26.9380599 C195.133926,26.9380599 195.52059,27.0034069 195.876879,27.1337725 C196.233168,27.2643024 196.540693,27.4501637 196.799454,27.6910281 C197.057723,27.9320568 197.259838,28.2244764 197.405474,28.5681228 C197.551109,28.9122618 197.623844,29.2974479 197.623844,29.7240095 C197.623844,30.1456454 197.551109,30.5308315 197.405474,30.879732 L197.405474,30.879732 Z M190.967809,32.4117744 L189.680243,32.4117744 L189.680243,30.1832446 L187.60211,30.1832446 L187.60211,32.4117744 L186.314708,32.4117744 L186.314708,27.081068 L187.60211,27.081068 L187.60211,29.0991083 L189.680243,29.0991083 L189.680243,27.081068 L190.967973,27.081068 L190.967973,32.4117744 L190.967809,32.4117744 Z M198.943919,23 L188.585599,23 C184.948496,23 182,25.9570339 182,29.5882256 L182,33.3530667 L182,39 L186.078441,36.1764513 L198.943919,36.1764513 C202.581022,36.1764513 205.529518,33.2194173 205.529518,29.5882256 C205.529518,25.9496455 202.573469,23 198.943919,23 L198.943919,23 Z M195.820563,28.5607343 C195.687406,28.4177262 195.526994,28.3046004 195.338669,28.2218494 C195.150509,28.1389342 194.943304,28.0975587 194.71738,28.0975587 C194.491621,28.0975587 194.285729,28.1389342 194.100032,28.2218494 C193.91417,28.3046004 193.753758,28.417562 193.618139,28.5607343 C193.482519,28.7037425 193.378424,28.8756478 193.305688,29.0764502 C193.232788,29.2772527 193.196503,29.4931605 193.196503,29.7240095 C193.196503,29.9650381 193.234102,30.1870209 193.309464,30.3902862 C193.384827,30.5937157 193.488758,30.7680838 193.621915,30.9135548 C193.754744,31.0593541 193.91417,31.1734651 194.100032,31.2562161 C194.285565,31.3391312 194.491621,31.3803425 194.71738,31.3803425 C194.943304,31.3803425 195.149196,31.3391312 195.334729,31.2562161 C195.520426,31.1734651 195.681167,31.0593541 195.816622,30.9135548 C195.952077,30.7680838 196.057651,30.5937157 196.133013,30.3902862 C196.208211,30.1870209 196.245811,29.9650381 196.245811,29.7240095 C196.245811,29.4931605 196.208211,29.2772527 196.133013,29.0764502 C196.057815,28.8756478 195.953391,28.7037425 195.820563,28.5607343 L195.820563,28.5607343 Z" id="HOT"></path>
                </g>
            </g>
        </g>
    </g>
</svg>