<?xml version="1.0" encoding="UTF-8"?>
<svg width="40px" height="37px" viewBox="0 0 40 37" version="1.1" xmlns="http://www.w3.org/2000/svg" xmlns:xlink="http://www.w3.org/1999/xlink">
    <!-- Generator: Sketch 45.1 (43504) - http://www.bohemiancoding.com/sketch -->
    <title>接口对接</title>
    <desc>Created with Sketch.</desc>
    <defs>
        <path d="M2,0 L38,0 L38,0 C39.1045695,-4.1271253e-15 40,0.8954305 40,2 L40,10 L0,10 L0,2 L0,2 C-1.3527075e-16,0.8954305 0.8954305,2.02906125e-16 2,0 Z" id="path-1"></path>
        <path d="M0,9 L40,9 L40,35 L40,35 C40,36.1045695 39.1045695,37 38,37 L2,37 L2,37 C0.8954305,37 1.3527075e-16,36.1045695 0,35 L0,9 Z" id="path-2"></path>
    </defs>
    <g id="常规发布任务" stroke="none" stroke-width="1" fill="none" fill-rule="evenodd">
        <g id="发布任务选择任务类型" transform="translate(-203.000000, -328.000000)">
            <g id="Group-7">
                <g id="Group-2" transform="translate(173.000000, 301.000000)">
                    <g id="接口对接" transform="translate(30.000000, 27.000000)">
                        <g id="Rectangle-2">
                            <use fill="#FFFFFF" fill-rule="evenodd" xlink:href="#path-1"></use>
                            <path stroke="#4D5373" stroke-width="1" d="M0.5,9.5 L39.5,9.5 L39.5,2 C39.5,1.17157288 38.8284271,0.5 38,0.5 L2,0.5 C1.17157288,0.5 0.5,1.17157288 0.5,2 L0.5,9.5 Z"></path>
                        </g>
                        <circle id="Oval-3" fill="#4D5373" cx="6" cy="5" r="1"></circle>
                        <circle id="Oval-3" fill="#4D5373" cx="10" cy="5" r="1"></circle>
                        <circle id="Oval-3" fill="#4D5373" cx="14" cy="5" r="1"></circle>
                        <g id="Rectangle-3">
                            <use fill="#FFFFFF" fill-rule="evenodd" xlink:href="#path-2"></use>
                            <path stroke="#4D5373" stroke-width="1" d="M0.5,9.5 L0.5,35 C0.5,35.8284271 1.17157288,36.5 2,36.5 L38,36.5 C38.8284271,36.5 39.5,35.8284271 39.5,35 L39.5,9.5 L0.5,9.5 Z"></path>
                        </g>
                        <g id="Group-4" transform="translate(20.189203, 23.216439) rotate(24.000000) translate(-20.189203, -23.216439) translate(12.189203, 11.216439)" stroke="#4D5373">
                            <path d="M4.01324463,11.4359131 L8.8269043,16.3044434 C8.21317546,16.9218343 7.54923503,17.5659993 6.83508301,18.2369385 C6.19696045,18.7578125 4.06402588,19.5477295 2.43756104,17.9260864 C0.811096191,16.3044434 1.34790039,14.2808228 1.92004395,13.6424561 C2.63094076,12.8948975 3.32867432,12.1593831 4.01324463,11.4359131 Z" id="Path-4"></path>
                            <path d="M5.25598145,13.0777588 L7.39044189,10.9726562 L5.25598145,13.0777588 Z" id="Path-5"></path>
                            <path d="M7.1071167,15.1099243 L9.3817749,12.8325195" id="Path-6"></path>
                            <path d="M2.43054199,17.8320312 C2.12357585,18.074056 1.75557454,18.440918 1.32653809,18.9326172 C0.818969727,19.440918 -0.114624023,20.956543 1.15722656,22.3905029 C2.42907715,23.8244629 4.31237793,23.1245117 5.27880859,22.2420654 C6.07714844,21.5794678 7.890625,19.920166 10.7192383,17.2641602" id="Path-7"></path>
                            <path d="M7.49767578,1.59803737 C7.18928548,1.92422959 6.80387898,2.3056688 6.3414563,2.742355 C5.49679077,3.53282131 5.28390014,5.17716945 6.44698608,6.29289211 C7.61007202,7.40861477 9.42016078,6.84965481 10.3865914,5.96720852 C11.1849313,5.30461086 12.9984078,3.6453091 15.8270211,0.989303243" id="Path-7" transform="translate(10.733900, 3.951866) scale(-1, -1) translate(-10.733900, -3.951866) "></path>
                            <path d="M7.43505859,8.01696777 L12.2999268,12.8248291 C13.1851807,11.9618734 13.8470052,11.2662354 14.2854004,10.737915 C14.9857178,9.74304199 15.4919434,8.04797363 13.8126221,6.34106445 C12.1333008,4.63415527 9.95092773,5.61425781 9.34692383,6.1472168 C9.0699056,6.41023763 8.43261719,7.03348796 7.43505859,8.01696777 Z" id="Path-8"></path>
                        </g>
                    </g>
                </g>
            </g>
        </g>
    </g>
</svg>