<?xml version="1.0" encoding="UTF-8"?>
<svg width="42px" height="42px" viewBox="0 0 42 42" version="1.1" xmlns="http://www.w3.org/2000/svg" xmlns:xlink="http://www.w3.org/1999/xlink">
    <!-- Generator: Sketch 45.1 (43504) - http://www.bohemiancoding.com/sketch -->
    <title>微信小程序</title>
    <desc>Created with Sketch.</desc>
    <defs></defs>
    <g id="常规发布任务" stroke="none" stroke-width="1" fill="none" fill-rule="evenodd" stroke-linecap="round" stroke-linejoin="round">
        <g id="发布任务选择任务类型" transform="translate(-202.000000, -598.000000)" stroke="#4D5373">
            <g id="Group-7">
                <g id="Group-2" transform="translate(173.000000, 574.000000)">
                    <path d="M50,65 C61.045695,65 70,56.045695 70,45 C70,33.954305 61.045695,25 50,25 C38.954305,25 30,33.954305 30,45 C30,56.045695 38.954305,65 50,65 Z M45.3713466,45.2901367 C41.7577398,45.8468424 39.9674403,47.4567057 40.0004482,50.1197266 C40.1410732,52.796875 42.4361205,54.8636334 45.0146083,54.7537109 C48.1887093,54.6183972 50.2167568,52.1566406 50.2167568,50.1197266 C50.2167568,45.8550781 50.1388271,44.6177734 50.2167568,40.6762695 C50.1388271,36.5228516 53.5827637,35.4018571 55.1993739,35.4 C58.4445888,35.4 60.2110927,37.7220703 60.2700771,40.1666992 C60.1977463,43.0235352 58.4097581,44.5383138 54.9061122,44.7110352" id="微信小程序"></path>
                </g>
            </g>
        </g>
    </g>
</svg>