<?xml version="1.0" encoding="UTF-8"?>
<svg width="88px" height="54px" viewBox="0 0 88 54" version="1.1" xmlns="http://www.w3.org/2000/svg" xmlns:xlink="http://www.w3.org/1999/xlink">
    <!-- Generator: Sketch 45.2 (43514) - http://www.bohemiancoding.com/sketch -->
    <title>PC端</title>
    <desc>Created with Sketch.</desc>
    <defs></defs>
    <g id="常规发布任务" stroke="none" stroke-width="1" fill="none" fill-rule="evenodd">
        <g id="PC端" stroke="#3CC8B4">
            <path d="M82.5,50.5 L82.5,2.9982349 C82.5,1.62530383 81.372949,0.5 79.9901011,0.5 L8.0098989,0.5 C6.61690053,0.5 5.5,1.61517055 5.5,2.9982349 L5.5,50.5 L82.5,50.5 Z" id="Rectangle-6"></path>
            <path d="M87.5,53.5 L87.5,52.9978698 C87.5,51.6167248 86.380353,50.5 84.9962983,50.5 L3.00370167,50.5 C1.62214492,50.5 0.5,51.6193863 0.5,52.9978698 L0.5,53.5 L87.5,53.5 Z" id="Rectangle-7" transform="translate(44.000000, 52.000000) rotate(-180.000000) translate(-44.000000, -52.000000) "></path>
            <circle id="Oval-11" cx="9.08604433" cy="3.894019" r="1.29800633"></circle>
            <circle id="Oval-9" cx="14.2780697" cy="3.894019" r="1.29800633"></circle>
            <circle id="Oval-10" cx="19.470095" cy="3.894019" r="1.29800633"></circle>
        </g>
    </g>
</svg>