<?xml version="1.0" encoding="UTF-8"?>
<svg width="14px" height="14px" viewBox="0 0 14 14" version="1.1" xmlns="http://www.w3.org/2000/svg" xmlns:xlink="http://www.w3.org/1999/xlink">
    <!-- Generator: Sketch 48.1 (47250) - http://www.bohemiancoding.com/sketch -->
    <title>解释</title>
    <desc>Created with Sketch.</desc>
    <defs></defs>
    <g id="钱包_接包方" stroke="none" stroke-width="1" fill="none" fill-rule="evenodd" transform="translate(-1120.000000, -185.000000)">
        <g id="Group-2" transform="translate(0.000000, 60.000000)" fill="#3CC8B4">
            <g id="质保金" transform="translate(950.000000, 24.000000)">
                <g id="解释" transform="translate(170.000000, 101.000000)">
                    <path d="M6.42984658,11.1330851 L7.49601395,11.1330851 L7.49601395,10.0669763 L6.42984658,10.0669763 L6.42984658,11.1330851 Z M6.48754533,9.25556206 C6.48403068,9.13040167 6.48225384,9.03714644 6.48225384,8.97503487 C6.48225384,8.60748117 6.53462204,8.29055788 6.6384993,8.02336681 C6.71482566,7.82188006 6.83824826,7.61943654 7.00777127,7.41435704 C7.132053,7.26521897 7.35663877,7.04686192 7.68064993,6.76098466 C8.00473919,6.47516597 8.21596932,6.24698745 8.31277824,6.07746444 C8.40956764,5.90788285 8.45830404,5.72234868 8.45830404,5.52086192 C8.45830404,5.15688145 8.31629289,4.83640446 8.03223152,4.56122734 C7.74817015,4.28603068 7.39930265,4.14751464 6.98648815,4.14751464 C6.58790795,4.14751464 6.25495397,4.27269456 5.9877629,4.52213668 C5.72057183,4.77155927 5.54571827,5.16127476 5.46224547,5.69214226 L4.49989679,5.57770153 C4.58692329,4.86661088 4.84437099,4.32240725 5.27227894,3.94421199 C5.70012831,3.56607531 6.26653278,3.37696792 6.97049651,3.37696792 C7.71620642,3.37696792 8.31100139,3.58021199 8.7548424,3.98591911 C9.19872245,4.39162622 9.42069177,4.88258298 9.42069177,5.45781311 C9.42069177,5.79068898 9.34252999,6.09784937 9.18626499,6.37837657 C9.03003905,6.65890377 8.72469456,7.00066388 8.2710516,7.40285635 C7.96656625,7.6744993 7.76681729,7.87335007 7.67360112,8.00204463 C7.58032636,8.13079777 7.51024826,8.27729986 7.4649484,8.44418689 C7.41970711,8.61107392 7.39395258,8.88088145 7.38686471,9.25558159 L6.48754533,9.25558159 L6.48754533,9.25556206 L6.48754533,9.25556206 Z M6.99090098,0.664892608 C3.50298745,0.664892608 0.665751743,3.50212831 0.665751743,6.99004184 C0.665751743,10.4770572 3.50298745,13.3142929 6.99090098,13.3142929 C10.4788145,13.3142929 13.3160502,10.4770572 13.3160502,6.99004184 C13.3160502,3.50300697 10.478795,0.664892608 6.99090098,0.664892608 L6.99090098,0.664892608 Z M6.99090098,13.9809623 C3.13551185,13.9809623 0,10.8455091 0,6.99090098 C0,3.13551185 3.13639052,0 6.99090098,0 C10.8454895,0 13.981802,3.13641004 13.981802,6.99090098 C13.981802,10.8455091 10.8463682,13.9809623 6.99090098,13.9809623 L6.99090098,13.9809623 Z"></path>
                </g>
            </g>
        </g>
    </g>
</svg>