<?xml version="1.0" encoding="UTF-8"?>
<svg width="38px" height="38px" viewBox="0 0 38 38" version="1.1" xmlns="http://www.w3.org/2000/svg" xmlns:xlink="http://www.w3.org/1999/xlink">
    <!-- Generator: Sketch 41.2 (35397) - http://www.bohemiancoding.com/sketch -->
    <title>微信2</title>
    <desc>Created with Sketch.</desc>
    <defs></defs>
    <g id="首页" stroke="none" stroke-width="1" fill="none" fill-rule="evenodd">
        <g id="关于我们" transform="translate(-287.000000, -2015.000000)">
            <g id="底部" transform="translate(0.000000, 1834.000000)">
                <g id="微信2" transform="translate(287.000000, 181.000000)">
                    <path d="M19,0 C29.493,0 38,8.507 38,19 C38,29.493 29.493,38 19,38 C8.507,38 0,29.493 0,19 C0,8.507 8.507,0 19,0" id="Fill-1" fill="#69BF01"></path>
                    <path d="M12.4,14.8 C11.7,14.8 11.1,14.4 11.1,13.7 C11.1,13 11.8,12.6 12.4,12.6 C13.1,12.6 13.5,13 13.5,13.7 C13.6,14.3 13.1,14.8 12.4,14.8 M18.7,12.5 C19.4,12.5 19.8,12.9 19.8,13.6 C19.8,14.3 19.4,14.7 18.7,14.7 C18,14.7 17.4,14.3 17.4,13.6 C17.3,13 18,12.5 18.7,12.5 M23.4,15 C23.7,15 24,15 24.3,15.1 C23.5,11.5 19.7,8.9 15.3,8.9 C10.4,8.9 6.4,12.2 6.4,16.5 C6.4,18.9 7.7,20.9 10,22.5 L9.1,25 L12.2,23.4 C13.3,23.6 14.2,23.8 15.3,23.8 L16.1,23.8 C15.9,23.2 15.8,22.6 15.8,21.9 C15.9,18.1 19.2,15 23.4,15" id="Fill-3" fill="#FFFFFF"></path>
                    <path d="M26.4,20.8 C26,20.8 25.5,20.4 25.5,19.9 C25.5,19.5 25.9,19 26.4,19 C27.1,19 27.5,19.4 27.5,19.9 C27.6,20.3 27.1,20.8 26.4,20.8 M21.6,20.8 C21.2,20.8 20.7,20.4 20.7,19.9 C20.7,19.5 21.1,19 21.6,19 C22.3,19 22.7,19.4 22.7,19.9 C22.7,20.3 22.2,20.8 21.6,20.8 M31.6,21.9 C31.6,18.3 28,15.4 24,15.4 C19.8,15.4 16.4,18.3 16.4,21.9 C16.4,25.5 19.7,28.4 24,28.4 C24.9,28.4 25.8,28.2 26.7,28 L29.1,29.3 L28.4,27 C30.2,25.7 31.6,23.9 31.6,21.9" id="Fill-5" fill="#FFFFFF"></path>
                </g>
            </g>
        </g>
    </g>
</svg>